<?xml version="1.0" standalone="no"?>
<!DOCTYPE svg PUBLIC "-//W3C//DTD SVG 20010904//EN"
 "http://www.w3.org/TR/2001/REC-SVG-20010904/DTD/svg10.dtd">
<svg version="1.0" xmlns="http://www.w3.org/2000/svg"
 width="696.000000pt" height="696.000000pt" viewBox="0 0 696.000000 696.000000"
 preserveAspectRatio="xMidYMid meet">
<metadata>
Created by potrace 1.11, written by Peter Selinger 2001-2013
</metadata>
<g transform="translate(0.000000,696.000000) scale(0.100000,-0.100000)"
fill="#000000" stroke="none">
<path d="M3416 5001 c-16 -6 -12 -14 33 -66 28 -32 83 -111 122 -176 112 -188
290 -421 420 -549 136 -135 193 -185 359 -317 85 -69 223 -171 259 -194 46
-29 150 -73 158 -66 2 2 -25 18 -61 36 -71 35 -148 93 -358 273 -150 129 -341
318 -435 433 -82 99 -220 292 -286 399 -75 122 -182 237 -211 227z"/>
<path d="M3344 4934 c-10 -22 -25 -50 -34 -64 -10 -14 -48 -83 -85 -155 -78
-149 -184 -328 -197 -333 -4 -2 -8 -8 -8 -14 0 -16 -213 -319 -396 -563 -166
-221 -206 -269 -249 -300 -18 -14 -17 -14 11 -4 50 16 133 110 421 476 154
196 167 213 289 395 145 216 306 560 276 590 -7 7 -16 -2 -28 -28z"/>
<path d="M2106 4174 c-31 -31 -324 -421 -386 -514 -148 -221 -357 -507 -464
-635 -143 -170 -497 -521 -696 -690 -143 -121 -312 -245 -345 -252 -25 -5 -26
-7 -10 -13 12 -4 33 -1 50 8 39 20 220 141 315 211 191 141 492 418 731 671
183 195 602 797 781 1125 58 106 69 105 128 -3 25 -46 60 -101 78 -123 46 -54
160 -135 174 -121 7 7 -14 27 -64 65 -81 59 -116 99 -172 195 -20 35 -43 70
-51 78 -18 19 -50 18 -69 -2z"/>
<path d="M4770 3746 c0 -3 15 -12 33 -20 19 -7 48 -31 65 -52 358 -444 514
-614 732 -799 152 -129 138 -117 280 -224 69 -52 127 -97 130 -101 9 -10 184
-137 264 -190 156 -104 483 -265 517 -255 20 7 32 35 24 56 -3 8 -94 58 -203
112 -225 111 -344 186 -662 417 -398 289 -562 435 -864 770 -32 36 -73 81 -91
100 -17 19 -55 63 -84 98 -29 35 -62 67 -74 71 -44 16 -67 22 -67 17z"/>
<path d="M3030 3301 c-61 -19 -112 -55 -167 -118 -92 -107 -213 -222 -268
-253 -28 -16 -73 -32 -102 -35 -43 -6 -59 -3 -105 18 -29 15 -63 34 -75 43
-31 22 -29 7 7 -49 17 -26 30 -50 30 -53 0 -4 18 -28 40 -54 72 -86 181 -117
402 -114 94 1 100 2 190 46 87 43 230 137 288 191 51 48 50 49 180 -101 104
-120 183 -149 400 -146 88 1 100 4 166 37 91 46 169 118 233 214 57 85 66 115
29 91 -25 -16 -49 -29 -90 -48 -15 -7 -25 -17 -21 -23 3 -5 -2 -5 -13 1 -11 5
-66 12 -124 16 -102 5 -157 17 -192 41 -10 6 -45 48 -77 91 -54 73 -138 152
-165 155 -6 1 -22 3 -36 5 -62 8 -112 -8 -161 -52 -28 -24 -60 -44 -72 -44
-57 0 -103 23 -152 75 -28 30 -63 59 -78 64 -32 12 -32 12 -67 2z m80 -31 c11
-7 2 -9 -32 -7 -26 1 -50 6 -54 10 -11 11 69 8 86 -3z m48 -51 c13 -21 13 -21
-12 -3 -27 20 -35 37 -13 28 7 -2 18 -14 25 -25z m312 17 c0 -2 -7 -7 -16 -10
-8 -3 -12 -2 -9 4 6 10 25 14 25 6z m-403 -22 c-3 -3 -12 -4 -19 -1 -8 3 -5 6
6 6 11 1 17 -2 13 -5z m609 -46 l29 -33 -32 29 c-31 28 -38 36 -30 36 2 0 16
-15 33 -32z m-703 -3 c-10 -13 -22 -25 -27 -25 -5 0 1 11 14 25 30 32 36 32
13 0z m662 -5 c3 -6 -1 -7 -9 -4 -18 7 -21 14 -7 14 6 0 13 -4 16 -10z m-455
-10 c0 -5 -4 -10 -10 -10 -5 0 -10 5 -10 10 0 6 5 10 10 10 6 0 10 -4 10 -10z
m95 0 c13 -6 15 -9 5 -9 -8 0 -22 4 -30 9 -18 12 -2 12 25 0z m-135 -4 c0 -2
-8 -10 -17 -17 -16 -13 -17 -12 -4 4 13 16 21 21 21 13z m45 -36 c-27 -12 -43
-12 -25 0 8 5 22 9 30 9 10 0 8 -3 -5 -9z m-435 -93 l-74 -72 69 75 c39 42 72
74 75 72 2 -1 -29 -35 -70 -75z m875 33 c10 -11 16 -20 13 -20 -3 0 -13 9 -23
20 -10 11 -16 20 -13 20 3 0 13 -9 23 -20z m-745 7 c0 -2 -17 -19 -37 -38
l-38 -34 34 38 c33 34 41 42 41 34z m225 -7 c-28 -12 -37 -12 -30 0 3 6 16 10
28 9 21 0 21 -1 2 -9z m251 -12 c4 -7 3 -8 -4 -4 -7 4 -23 -5 -37 -20 -29 -31
-33 -24 -7 11 19 27 37 32 48 13z m-161 -48 c-3 -5 -16 -15 -28 -21 -19 -9
-19 -8 3 10 28 23 34 26 25 11z m1075 -9 c-13 -25 -30 -36 -30 -20 0 6 8 18
18 25 23 18 24 17 12 -5z m-878 -48 c158 -175 202 -205 328 -223 l65 -9 -74 5
c-103 6 -153 36 -275 162 -57 58 -107 102 -118 102 -11 0 -16 5 -13 10 13 21
37 8 87 -47z m69 10 c13 -16 12 -17 -3 -4 -10 7 -18 15 -18 17 0 8 8 3 21 -13z
m-240 -31 c-6 -11 -27 -30 -48 -42 l-38 -22 45 44 c48 47 58 52 41 20z m-91
14 c0 -2 -7 -6 -15 -10 -8 -3 -15 -1 -15 4 0 6 7 10 15 10 8 0 15 -2 15 -4z
m993 -3 c-7 -2 -19 -2 -25 0 -7 3 -2 5 12 5 14 0 19 -2 13 -5z m-1742 -40 c13
-16 12 -17 -3 -4 -10 7 -18 15 -18 17 0 8 8 3 21 -13z m759 4 c0 -2 -12 -14
-27 -28 l-28 -24 24 28 c23 25 31 32 31 24z m-610 -32 c-28 -16 -60 -20 -44
-6 8 9 36 18 59 19 6 1 -1 -5 -15 -13z m600 -9 c0 -2 -8 -10 -17 -17 -16 -13
-17 -12 -4 4 13 16 21 21 21 13z m996 -22 c-30 -21 -45 -16 -16 6 14 10 27 16
30 13 3 -2 -4 -11 -14 -19z m-1061 0 c-26 -20 -55 -36 -55 -30 0 5 63 46 70
46 3 -1 -4 -8 -15 -16z m-625 -39 c13 -14 21 -25 18 -25 -2 0 -15 11 -28 25
-13 14 -21 25 -18 25 2 0 15 -11 28 -25z m183 7 c-3 -14 -11 -17 -36 -14 l-32
5 35 13 c19 7 36 13 37 13 0 1 -1 -7 -4 -17z m184 2 c-3 -3 -12 -4 -19 -1 -8
3 -5 6 6 6 11 1 17 -2 13 -5z m1093 -24 c-8 -5 -22 -9 -30 -9 -10 0 -8 3 5 9
27 12 43 12 25 0z m170 -1 c-26 -17 -70 -40 -70 -35 0 7 64 46 75 46 6 0 3 -5
-5 -11z m-1243 -25 c-3 -3 -12 -4 -19 -1 -8 3 -5 6 6 6 11 1 17 -2 13 -5z m56
-31 c-7 -2 -21 -2 -30 0 -10 3 -4 5 12 5 17 0 24 -2 18 -5z"/>
</g>
</svg>
