<svg xmlns="http://www.w3.org/2000/svg" xmlns:xlink="http://www.w3.org/1999/xlink" width="300" height="300" viewBox="-841705.1193296474 -3539850.2759498917 1905200.8636457855 3088174.542488489" preserveAspectRatio="xMinYMin meet"><g transform="matrix(1,0,0,-1,0,-3991526.0094112945)"><path fill-rule="evenodd" fill="#66cc99" stroke="#555555" stroke-width="20587.830283256593" opacity="0.6" d="M -723241.5650178842,-1294746.7755323546 L -724059.2445493736,-1291647.373830381 L -726048.1474506684,-1282328.9165221427 L -727141.1351309433,-1272863.4656989123 L -727328.2844226663,-1263336.9576031389 L -726607.8962089958,-1253835.8828124728 L -724986.5108499572,-1244446.5009971603 L -722478.8488029195,-1235254.0577738343 L -719107.6769764724,-1226342.0107658345 L -714903.6020310731,-1217791.2718966084 L -709904.7925030682,-1209679.4727953637 L -706239.8125030682,-1204321.6327953637 L -700119.4977889213,-1196278.9189285312 L -696182.9793529076,-1192066.87397112 L -696597.2314333506,-1190722.9904532144 L -698535.0496578313,-1181295.420243948 L -699557.5714872339,-1171725.2233478453 L -699613.1622568659,-1166252.1129025903 L -699669.5355181884,-1165973.1138409642 L -699880.1418672483,-1163933.286554124 L -701542.3883993456,-1158177.2297245516 L -703320.3775097983,-1148614.4160987672 L -704160.9106314799,-1138924.1037307507 L -704056.035594022,-1129197.9713573512 L -703006.7446059928,-1119528.036603651 L -701022.9648677461,-1110005.7854166417 L -698123.4646515194,-1100721.3065290316 L -694335.6757373443,-1091762.4391419103 L -689695.4338846795,-1083213.9418899275 L -684246.6397951299,-1075156.6909512968 L -678040.8437738359,-1067666.9148891927 L -674548.9294540555,-1064201.6267576872 L -674443.7977833053,-1064024.7924492026 L -668671.7056547292,-1056172.337310182 L -662162.6593097581,-1048919.0335849738 L -654978.4804333707,-1042333.7717736886 L -647187.4029910025,-1036479.0974413176 L -642562.2444201531,-1033662.8327392382 L -639989.3821020605,-1031308.3290055285 L -635554.0197374398,-1027997.3768394458 L -635125.0929622446,-1027635.6279782419 L -634409.9631305636,-1027143.3504061439 L -631990.3669963834,-1025337.1468983063 L -630375.1340551585,-1024365.8745226372 L -627075.9447523732,-1022094.7947439506 L -618524.4301906729,-1017366.0297322661 L -609552.2073645943,-1013494.4877405138 L -607820.9273645943,-1012845.8177405136 L -598488.966030156,-1009861.8798238978 L -588909.7952962065,-1007805.4567430333 L -579175.3650362202,-1006696.2879771864 L -569379.1154503574,-1006545.0203694416 L -559615.0801387036,-1007353.1059283055 L -558444.202699999,-1007566.8796619424 L -551426.3738472202,-1007291.9760946541 L -541219.7695413312,-1007937.5089040456 L -540102.1859647323,-1008065.8302771036 L -537617.132047101,-1007801.4980828053 L -536525.939500538,-1007515.3327398843 L -536248.555445734,-1007456.6224028058 L -534698.6495673741,-1006603.206349373 L -525671.8011473006,-1002732.6907215263 L -516527.0511473007,-999332.9207215263 L -507567.4962919562,-996473.8151375228 L -506261.85973749787,-996123.8904443112 L -506685.8159181832,-992454.3792473476 L -506853.24465287774,-982667.8913830526 L -506771.14465287776,-980091.2713830526 L -506046.5072858976,-970847.3494102515 L -504468.7841872687,-961710.2830004616 L -502051.5398617426,-952758.6282582605 L -498815.556614001,-944069.3472078402 L -495430.8614690404,-937049.145738327 L -494354.59101065685,-933891.7169589387 L -493576.53101065685,-931925.3469589388 L -489480.13994210877,-922906.1483583982 L -484511.5130519305,-914336.4861708513 L -478719.4056687967,-906300.4513747147 L -472160.65363597404,-898876.8986568836 L -464899.61560186226,-892138.6726403674 L -457007.5414919831,-886151.8930864964 L -450502.3148279877,-882164.6571145165 L -449706.1823093238,-881325.1026365721 L -441658.2281672243,-874461.7929562519 L -432930.37034759176,-868486.9219516536 L -430204.82034759177,-866825.6519516535 L -421950.81268534326,-862312.8734672458 L -418819.0526449666,-860965.7293530048 L -410853.05610101053,-856414.3865972734 L -410333.13122955477,-856179.9351819563 L -409511.73627376,-855162.1390374344 L -402427.1714876435,-847997.9847917784 L -394657.6571274499,-841583.0950132258 L -386282.0663227834,-835982.5912022265 L -377385.4248588378,-831253.3275252641 L -372672.03895381326,-829328.020334731 L -366020.8167846114,-824922.1813095975 L -357038.45259193855,-820205.2477075115 L -353485.2406953461,-818777.5886681584 L -353140.6628522791,-817887.4562084564 L -349033.9328640002,-809631.4925016456 L -344184.19198997575,-801788.9048304989 L -338632.6757184004,-794426.3757126454 L -333869.44571840035,-788680.8157126453 L -327969.37642492977,-782168.890354509 L -321520.41868732346,-776200.060181329 L -314572.3687709012,-770820.4141059261 L -307178.87673062825,-766071.4915978075 L -300933.31673062826,-762437.2315978077 L -291556.81866991066,-757623.7301666177 L -281725.7706505258,-753823.860859489 L -279353.74465567106,-753048.0348772528 L -277593.4199314672,-751969.7852073405 L -260284.06993146718,-742472.8152073405 L -251991.30192922012,-738409.2713990567 L -243359.03350232157,-735128.0625933106 L -234460.8826985284,-732657.1717228168 L -225372.73507403818,-731017.6711353185 L -197740.84836997587,-727340.7865284565 L -189746.47916812054,-725364.0421490618 L -186085.60495350265,-724837.4586744257 L -174077.8810461286,-721528.5828906377 L -164574.30485399254,-719401.6400331147 L -154908.9050948378,-718209.2081253586 L -145173.35020455992,-717962.5964117481 L -135459.97398327116,-718664.1438033085 L -132164.0262289655,-719228.3040997084 L -124628.52552868932,-716609.1043752504 L -115032.97385541468,-714303.6627076603 L -109925.0146619006,-713599.1178800648 L -107446.34124094917,-707540.4489555825 L -102876.4086066103,-698893.3225562631 L -97483.61781517498,-690733.9790331597 L -91319.55472825367,-683140.4682832722 L -84443.18297296602,-676185.4276125584 L -76920.27991310562,-669935.3869086794 L -74851.99991310562,-668381.5269086794 L -66539.38347108082,-662765.777468088 L -57705.9450979544,-658011.1375868876 L -54481.94679159587,-656672.9850330987 L -53372.80567980264,-655857.6823029148 L -44893.56781106273,-650829.4458536586 L -35960.448577686344,-646660.5110512682 L -32740.51369454193,-645528.6682415495 L -26527.572738063078,-642640.332070869 L -17464.7618033897,-639444.3471031613 L -10365.331803389701,-637318.3271031613 L -4589.36831870582,-635904.6868592512 L -4045.8818107300613,-635341.3994591372 L 116.5245887498321,-631801.297872698 L 2128.3656145850546,-629430.9400139084 L 8831.495188929155,-622887.7831958563 L 16117.455914077946,-617000.540755829 L 18615.185914077956,-615168.820755829 L 26752.901392199194,-609790.9289992126 L 35375.849366221424,-605231.4442491513 L 44401.98754529961,-601533.7473279687 L 46861.31541181727,-600796.5562863918 L 51685.162574149945,-598000.0215207059 L 61354.94158263663,-593688.0604712422 L 71426.4163921406,-590422.6310467118 L 73261.29556006186,-589933.3966802922 L 78913.2762770815,-587574.4988618704 L 88056.22953421858,-584749.7617264327 L 90225.83029667361,-584301.1017943006 L 98681.34314788517,-580674.3323662884 L 109525.02903113345,-577415.9613910071 L 115471.94903113344,-575990.5013910071 L 125822.86197396816,-574079.0832444614 L 131198.52790187867,-573662.7313197905 L 134307.26262210179,-572490.0542207431 L 144637.5593762253,-569808.9055809897 L 155194.76279379218,-568243.9630718792 L 165858.62253883612,-567813.0519502573 L 176507.67342154137,-568521.0804484554 L 182628.9986604198,-569257.8067166156 L 184954.5017546346,-569121.5262140438 L 188387.785020904,-568516.901820042 L 201826.345020904,-566817.091820042 L 212096.73342008205,-566052.568368384 L 222391.2875056613,-566348.4233281021 L 232600.81770473928,-567701.5187025015 L 242617.03625344535,-570097.5028348911 L 263828.96625344537,-576342.3828348911 L 272750.2988653852,-579433.5010595648 L 281340.33890953765,-583352.2252769126 L 289522.5103129073,-588063.6219464416 L 297223.87295514264,-593525.6912342255 L 301500.8429551426,-596873.4112342255 L 302059.494809834,-597358.7158595236 L 303643.9938997109,-598101.9842977462 L 312315.990247761,-603297.2588614903 L 320419.1496799429,-609341.529344346 L 323677.40703714936,-612328.6780185697 L 333716.02036837995,-613597.3928886009 L 344383.9436323136,-616156.9488133385 L 354707.2914834381,-619869.6839832257 L 364561.8163258631,-624690.9134350423 L 390706.09632586315,-639310.9534350422 L 399215.4001078215,-644647.3477521604 L 407146.4605091377,-650810.4343223863 L 414419.2647452723,-657738.0366279669 L 420960.4408723871,-665360.2653070007 L 424591.77877278684,-670569.9412693501 L 430432.4255009233,-669198.4219728782 L 440124.0382723126,-667903.4798995801 L 441092.9328918405,-667869.5435009727 L 442940.86541859567,-667355.4855368824 L 453131.0683350608,-665628.0962475319 L 457403.6783350608,-665129.2962475319 L 467395.628912773,-664467.5894712434 L 477403.6605118976,-664808.5230661746 L 479521.5068085242,-665094.527976646 L 488995.7997556051,-664948.8798134523 L 499642.7594388046,-665926.846192051 L 510124.4517052564,-668035.9445692603 L 528874.0617052563,-672864.4745692604 L 537429.0495700224,-675480.8369277428 L 545715.974500851,-678851.3034455988 L 553668.5136110984,-682948.8992110646 L 561223.0202098215,-687740.8298665547 L 568319.0331864178,-693188.7440722993 L 572414.4931864177,-696634.8440722993 L 579626.7746736852,-703337.0106590996 L 583628.2270971087,-707866.8077148908 L 590221.6731274714,-714375.8596774417 L 596396.3141189932,-721775.0022187635 L 601830.0483536662,-729734.15003671 L 605346.5083536663,-735459.1200367099 L 609962.1850389964,-743849.7684358794 L 613754.0966491932,-752643.451291341 L 616687.4685291261,-761759.5239784142 L 618735.3994727598,-771114.3853174236 L 619879.1084272591,-780622.2442588143 L 620108.1067292402,-790195.9066510064 L 619420.294293628,-799747.5748757408 L 617821.9788730029,-809189.6530176636 L 616388.342576579,-815736.2422136946 L 616360.0411316621,-818771.1671432956 L 615255.3074685577,-828773.6297301246 L 613815.7153378656,-835505.4477331667 L 613590.7065043221,-838028.9095079752 L 613018.3468563255,-841130.2109304023 L 612940.1734625645,-843279.0914355818 L 612785.2675706975,-844405.3469954189 L 613361.4253090853,-847709.393592964 L 614084.7167980631,-857757.7950454851 L 613793.3068358299,-867827.9788850666 L 612490.1530447365,-877817.7392688702 L 610188.4815916223,-887625.6866000387 L 608368.8679926491,-892915.7748392196 L 608600.2783317793,-894221.3563629221 L 609362.8928615871,-903708.5429078421 L 609561.8528615872,-909808.6529078421 L 609353.2527422076,-920299.0559904828 L 609007.9660222366,-923050.1682529587 L 609062.3261264989,-924343.967942896 L 608985.566126499,-932705.107942896 L 608495.906005457,-941713.3625827022 L 607196.3812598627,-950640.8288596094 L 606630.1769424978,-953007.8276644197 L 607354.6889637479,-958265.2240365469 L 609201.4389637479,-979088.8140365469 L 609557.7240890935,-990555.555445844 L 608598.3344868484,-1001987.6448974418 L 607294.3044868484,-1011166.9648974419 L 606490.1671174979,-1015357.9645718543 L 607903.0930214518,-1019063.2623726395 L 610037.9195280183,-1026862.8292136013 L 611561.9838046673,-1031191.6796370458 L 613885.8753368196,-1040639.2987623973 L 615280.6754687959,-1050268.0324061718 L 615733.1813044376,-1059986.736921673 L 615431.5554557763,-1065918.6722032465 L 615421.1279909386,-1071106.2517020572 L 614577.0240796218,-1079441.6443369978 L 615289.6800620366,-1083648.8941868602 L 615986.9923621393,-1092760.0996252173 L 615849.6945051339,-1101896.9184524834 L 615123.7964616751,-1108691.1829436368 L 623075.7330859249,-1111894.8842132501 L 632192.3311523781,-1116712.551505844 L 640764.362338391,-1122443.394357765 L 654044.0523383911,-1132348.994357765 L 661948.5832149037,-1138902.8267499895 L 669139.3756401245,-1146232.6856640822 L 675540.6139777688,-1154261.289225586 L 676700.224603556,-1156068.9761846366 L 678913.8125628966,-1157420.3598634857 L 687058.7364505559,-1163618.5464701871 L 694527.4388940836,-1170616.8166962715 L 701241.6797814784,-1178341.8585507402 L 709204.2497814784,-1188510.7085507403 L 714878.7085171508,-1196541.6645261992 L 719736.9716150074,-1205091.1098587697 L 720570.5594372269,-1206965.9130322044 L 722183.8897686272,-1209843.5978890008 L 724725.7779553095,-1214303.2193099791 L 731144.6379553096,-1226954.7593099792 L 734782.0119567048,-1234982.3517147284 L 737698.4581159233,-1243299.0260045629 L 739871.3235996196,-1251840.1843002846 L 741763.1535996195,-1260937.4043002846 L 743279.4083440285,-1270558.0574740868 L 743301.8867954635,-1270939.3460122487 L 743702.4371987747,-1272573.39838625 L 745085.3889050564,-1282115.0271352462 L 745543.0426506378,-1291745.488580823 L 745071.1443043901,-1301375.2625426762 L 743674.0804084617,-1310914.8352310243 L 742235.8707880112,-1316744.7297652138 L 741207.7990170165,-1321701.2467314478 L 739588.6580402934,-1326903.681912704 L 745624.5072330257,-1332807.7661314611 L 751898.1218457256,-1340272.9910285694 L 757414.8186369119,-1348313.7546482268 L 762122.1405377418,-1356853.599119589 L 765975.3266490101,-1365811.3209206397 L 767379.719341838,-1370215.6388815162 L 768250.5266767369,-1371616.4872358956 L 776502.726676737,-1386515.5172358956 L 782618.4954534966,-1399751.0422649723 L 785856.4454534965,-1408356.4722649725 L 786966.2291027962,-1411783.383113612 L 788273.3800727949,-1415223.1307704514 L 790900.5739174208,-1425040.0481649677 L 792600.5239174209,-1432990.0581649677 L 792688.3223877656,-1433511.6133847525 L 795341.6100937937,-1435014.028427721 L 803344.7215404775,-1440644.8632546724 L 810759.169992632,-1447030.9456082594 L 817513.9575882027,-1454111.1248584741 L 823544.4031198132,-1461817.603974564 L 828792.7613967397,-1470076.5887229133 L 833208.7761903013,-1478808.9942917984 L 836750.1614678727,-1487931.202576652 L 839383.0063074157,-1497355.862874368 L 841082.0996152211,-1506992.7283195124 L 841831.1715374945,-1516749.5200530542 L 841748.1248374962,-1520653.330844117 L 842049.2932262974,-1522299.1048857647 L 842866.6510149975,-1531175.0165300176 L 842890.3965641452,-1540088.4511890155 L 842120.3412156345,-1548968.5917302212 L 840727.1312156345,-1559536.161730221 L 838790.8186595183,-1569939.5672698491 L 835765.994193413,-1580080.1091728339 L 835548.409231833,-1580600.8948534438 L 836695.3788712532,-1586179.1744520932 L 839870.6426851572,-1592581.8495172877 L 843421.3031849914,-1602032.65145514 L 846000.9525407372,-1611793.2998175696 L 847125.7525407373,-1617125.8798175696 L 848663.6488861451,-1626690.4406010073 L 849268.8581309378,-1636358.9291033177 L 848935.7006315747,-1646040.610477434 L 847667.3029361969,-1655644.6260665327 L 845475.5684432399,-1665080.8460757139 L 842381.0656928617,-1674260.715403607 L 840369.3756928617,-1679392.5954036072 L 836166.8762093876,-1688687.666986498 L 831039.2908449508,-1697506.239771823 L 825039.9769234778,-1705756.5482576485 L 818231.3629202637,-1713352.740263838 L 810684.2988352672,-1720215.7703043246 L 802477.3189325634,-1726274.2221293603 L 799620.2489325634,-1728166.0921293602 L 796294.901843121,-1730122.2779063152 L 795763.0540729326,-1731260.0030678934 L 794721.2519492407,-1733007.5169804445 L 803001.4157228249,-1736923.286900747 L 804412.2954398795,-1737774.7333122736 L 812131.4481020663,-1739766.737076965 L 821280.5563888326,-1743106.254794108 L 830061.4034762186,-1747319.9569019973 L 838390.6955122943,-1752367.8728287788 L 846189.4220313691,-1758202.1187703523 L 853383.605435899,-1764767.3519092496 L 859905.0027373333,-1772001.2953886343 L 865691.7528992824,-1779835.329061607 L 870688.9636424084,-1788195.1404120428 L 872248.2300628944,-1791495.7328650125 L 876418.8089085778,-1796055.2912172368 L 876950.4530926938,-1796565.5927241207 L 877952.4955717608,-1797732.0210174774 L 878443.2440949661,-1798268.5404337542 L 878644.539481731,-1798537.5952458135 L 883213.0482781443,-1803855.57130961 L 886834.178486509,-1808997.179474939 L 890377.6720504335,-1813347.2600400322 L 895844.4043118187,-1821610.8843042166 L 900466.5304424614,-1830374.935743461 L 904198.6738063842,-1839553.3753444178 L 907004.1949640622,-1849056.0959354436 L 907016.8070979045,-1849122.4056225566 L 907154.4890157912,-1849414.991439219 L 909216.9699023514,-1855209.9352395998 L 913682.3775863133,-1862618.0265865515 L 917977.0010470515,-1871692.8129967726 L 918305.5500302205,-1872488.0259197091 L 921600.7833633795,-1876833.3166057756 L 926805.3970218707,-1885340.3598379772 L 931136.7892347208,-1894323.5012365726 L 931148.382138855,-1894355.3083757996 L 933131.2280873876,-1897106.671742499 L 938165.567646377,-1905822.9643031151 L 942298.1595965942,-1915001.2002213327 L 945487.1332062129,-1924548.3871428617 L 947700.1783269248,-1934367.7945634322 L 948914.8727549687,-1944359.9338861166 L 949118.9094091571,-1954423.5664231882 L 948310.2210241674,-1964456.7291296055 L 946730.5510241673,-1976466.8591296056 L 945519.1689693884,-1983225.6580035447 L 946575.9901244063,-1990758.6500334942 L 947162.2101244063,-1997329.1500334942 L 947553.8144905693,-2007115.3418120753 L 946986.2286273658,-2016892.9054040269 L 945464.8969831945,-2026568.0515804528 L 943004.412612906,-2036047.9735300434 L 938240.1426129059,-2051291.0435300432 L 934681.8280053262,-2060912.0785082425 L 930156.610988119,-2070117.9640085853 L 928062.2817547353,-2073462.2215447305 L 926617.0161638834,-2079816.866230151 L 923359.4923929751,-2089467.6444492124 L 920156.2191198731,-2096499.8017304468 L 919412.6584367111,-2099334.423753842 L 915937.3245110658,-2108674.121625928 L 911549.6708891288,-2117621.5457206327 L 906293.2704385936,-2126087.8410462285 L 902626.8704278779,-2130857.939401332 L 900402.7538325875,-2135755.4007377177 L 899977.5581727311,-2136484.550750062 L 897906.8214125466,-2142499.929648657 L 893853.4163970042,-2151361.1674050037 L 888956.8140034752,-2159785.8283355227 L 884370.4125131948,-2166156.4116314123 L 884123.2356995369,-2166851.431159237 L 880060.2246552687,-2175535.7185497717 L 875184.2179311453,-2183790.98745233 L 874916.2038630064,-2184159.0137477773 L 874633.4060202589,-2185103.713240377 L 870980.309318234,-2194052.862812447 L 866480.2606816033,-2202607.508091217 L 864489.2567974096,-2205640.0943443435 L 863668.6076935123,-2207640.88235197 L 859106.3111391325,-2216260.5858344017 L 858442.6189478573,-2217264.009695311 L 857055.9678889285,-2221353.2565201633 L 853152.3379910034,-2230042.6105763293 L 848439.617781288,-2238321.1049151765 L 842960.5719911739,-2246113.617829713 L 836764.9192356159,-2253349.4375639195 L 834087.2605318336,-2255932.358618329 L 828443.9762760024,-2262962.6064078775 L 828069.6666926498,-2263343.3623390296 L 825337.4159292035,-2267435.03647846 L 823179.9231460657,-2270345.151068125 L 819521.1695648611,-2276029.436592051 L 813467.568108184,-2283678.41254577 L 806697.525766182,-2290701.1933642454 L 799275.4614711213,-2297030.9552347143 L 791392.2582256189,-2302523.6760340645 L 790550.1459360479,-2303575.635914992 L 783859.8776686823,-2310460.1310017155 L 776540.3015162768,-2316671.392309822 L 776337.5267164733,-2316812.402954926 L 770099.5161561925,-2323069.162989256 L 762526.7999047892,-2329303.565248855 L 754379.7255437317,-2334766.0722112446 L 745736.6791737466,-2339404.1270195716 L 742119.1385550057,-2340909.719098871 L 739955.7331963468,-2342150.512709054 L 739910.8324446722,-2342182.6997300754 L 739532.2760818668,-2342612.7221434247 L 732410.8545049983,-2349266.492340561 L 731051.6841506573,-2350308.263175555 L 730758.3556219763,-2350638.1725384416 L 723532.5962523331,-2357310.934020274 L 720653.7256806558,-2359486.934880926 L 716436.3721655202,-2363577.63525714 L 712285.1766027203,-2368301.54652806 L 705447.591198314,-2374746.443814536 L 698035.2809193488,-2380521.1240242207 L 690113.6885160303,-2385574.602924094 L 686620.8811333359,-2387365.7868785737 L 680796.3508507439,-2392493.823917428 L 679275.4031758428,-2393589.9776037135 L 676367.5293241588,-2396098.2572447527 L 668502.0292395636,-2401658.94607499 L 667054.1692395636,-2402581.28607499 L 661416.4728442015,-2405791.259478816 L 659186.5049337645,-2407474.8471285384 L 650669.5812343636,-2412660.6655443315 L 647427.2612343634,-2414419.5455443314 L 638458.4506241579,-2418722.0425510844 L 629106.5561853979,-2422112.1922028167 L 623522.8454085456,-2423527.603701414 L 622498.1117474944,-2424046.873368391 L 621301.4161729368,-2425957.3157680654 L 615368.1885558034,-2433652.7082121302 L 608716.0856132002,-2440735.912378741 L 603047.777844922,-2445703.0407031644 L 602852.8075263705,-2452272.818050881 L 601599.740278029,-2462014.496200307 L 599397.0501275532,-2471586.2581487084 L 597954.040133478,-2475876.7206437923 L 596886.3564009985,-2483444.82958373 L 594536.6447829709,-2493074.9859978165 L 591245.0448754237,-2502425.1960113025 L 589069.370207959,-2507074.893193136 L 588763.1969373237,-2513409.754703192 L 587399.7906832938,-2522838.8036341607 L 585145.275809002,-2532095.315020084 L 582020.1156081643,-2541095.2713574907 L 578052.6758599685,-2549756.9837863673 L 576616.26160676,-2552237.8683485417 L 574595.2229152637,-2558834.2795311585 L 570631.9717854094,-2568226.7756243637 L 565733.0484970596,-2577166.9597943923 L 559949.3657681098,-2585561.9199771457 L 559542.5542179948,-2586039.781802205 L 559181.2658572649,-2586785.0038388404 L 558973.7322751575,-2587121.296664599 L 558194.125367582,-2589522.2428607 L 554323.2145497946,-2598406.247441933 L 549610.5692835163,-2606873.8600070453 L 547364.8622146149,-2610122.808364392 L 542791.4619616605,-2617096.6500137993 L 536663.6527647187,-2624703.0626613647 L 531733.3477073498,-2629728.2424544906 L 531313.3819241126,-2630202.3398114336 L 530821.3424543003,-2630657.797586581 L 529822.9921308389,-2631675.3593426067 L 528762.6567769485,-2632563.4260084075 L 524046.63188994303,-2636928.828246149 L 520719.1609874347,-2639446.5783110242 L 514286.02282621944,-2645634.3965313374 L 507007.4537909554,-2651434.812984557 L 504599.358643564,-2653011.6728421627 L 503267.5445511716,-2654656.2704086043 L 501904.87119696493,-2656033.651649701 L 499999.5541369837,-2659300.56904929 L 498211.0940360998,-2662507.9328815676 L 492757.55059741513,-2670400.5394600607 L 489165.5605974151,-2675099.9194600605 L 482801.24433840305,-2682626.410325651 L 475726.88884680247,-2689489.797286402 L 468011.2233157801,-2695623.400762984 L 459729.20743139106,-2700967.631211353 L 450961.30311984266,-2705470.568050581 L 441792.6928390722,-2709088.4640847277 L 434341.1662892709,-2711208.87763465 L 433360.1132904366,-2711627.480112529 L 431257.5961225433,-2712290.792971745 L 424667.42568792903,-2718159.5206946544 L 416498.67555346235,-2724073.8393244776 L 407775.76516382094,-2729135.309264002 L 398587.4131851238,-2733292.4514951496 L 389027.07218021626,-2736502.9847038714 L 380342.27070303063,-2738473.2904453753 L 378992.16585833987,-2739613.1307908404 L 370710.61530841194,-2745287.5943437763 L 367117.83673998585,-2747251.673124432 L 364838.00150569726,-2748995.066562161 L 356387.4972919142,-2754216.522028668 L 353238.8933945199,-2755753.3927473915 L 349780.88376973604,-2757855.632392136 L 340711.7697722078,-2762188.304665906 L 337155.15182465344,-2763466.975575885 L 334327.6839489111,-2767850.169104929 L 332401.1624587383,-2772521.161149309 L 327736.69257595774,-2781260.1058381284 L 325422.03958785214,-2784721.698768167 L 326779.2108267629,-2789773.951093255 L 328394.787211176,-2799623.375916102 L 328628.53979932633,-2803344.945883804 L 329098.71939389285,-2807186.974395128 L 329344.7424002438,-2816798.1698548724 L 328666.6432840748,-2826388.570632406 L 327070.6900956241,-2835869.527277457 L 324571.63512482157,-2845153.4019932193 L 321998.15510542656,-2852008.5206240336 L 321942.2917143945,-2854701.480479471 L 321582.98703724815,-2857759.5556718432 L 321615.3775940425,-2857908.876846508 L 322776.7478603279,-2861165.086735099 L 325157.3258452235,-2870725.874899736 L 326585.49637972703,-2880474.5235648393 L 327047.39538099756,-2890316.3969222778 L 326538.53892651806,-2900155.95417756 L 325063.86678214185,-2909897.6770199444 L 322637.6944489096,-2919446.996874295 L 319283.57419414615,-2928711.2129332945 L 315034.06641589024,-2937600.3920581504 L 310928.9492070425,-2944379.3364388198 L 308356.8389526472,-2951427.4831121005 L 304146.25133596134,-2960204.4408295555 L 299102.2180949474,-2968530.4100533356 L 294972.6299404652,-2974052.9437080226 L 291813.39499838,-2980514.9471433572 L 290920.68499837996,-2982132.367143357 L 285711.46797823126,-2990555.550096649 L 279694.6037861512,-2998422.143916194 L 274010.5025793455,-3004498.8941981946 L 271568.2043072018,-3012906.564430093 L 268108.86744320084,-3021649.635578608 L 266127.38311148516,-3025542.499515811 L 263891.8236422143,-3030429.419139293 L 258787.12848472106,-3039140.7510730964 L 254366.26169978536,-3045190.601704723 L 251775.66793739688,-3049240.6106234416 L 251503.50285616593,-3055059.101771032 L 251109.48967694948,-3057732.3752887044 L 251183.09503045288,-3057925.4981582374 L 253744.13691081462,-3067286.709767366 L 255385.66191806403,-3076852.0960091455 L 256092.2083281702,-3086531.5593452104 L 255857.12109441755,-3096233.9277311447 L 254682.61453210155,-3105867.8133770786 L 252579.7514616232,-3115342.4735404127 L 251015.1681737276,-3120135.953531359 L 250860.2576689697,-3120981.967736908 L 250799.45072328375,-3130012.2867883667 L 249744.54330766056,-3139903.5805877666 L 247712.14748081798,-3149641.13109519 L 244722.3739056923,-3159128.584739402 L 243556.84220569354,-3161848.898751734 L 243412.63005465927,-3166773.8103436604 L 242194.11040224353,-3176381.316177923 L 240051.96036537335,-3185825.899372446 L 237006.2709461393,-3195018.980165101 L 233085.60734839542,-3203874.3376085954 L 232948.79709565587,-3204116.81912377 L 231768.99280991408,-3209680.331056773 L 230526.76728332276,-3213579.806542824 L 229753.57161673415,-3221047.7349660695 L 227803.63628377346,-3230622.046821312 L 227320.67224344137,-3232190.764728363 L 227470.93669788132,-3234119.1765389545 L 227259.63438948442,-3244022.5960928933 L 226069.57231351914,-3253856.5230695503 L 225478.95952331225,-3256503.54532272 L 224765.4701688377,-3262026.6469866177 L 222649.14835035094,-3271322.5956966095 L 220781.31995860802,-3276973.7153110704 L 220161.99709820503,-3279982.243250874 L 217315.40646477064,-3289199.877292114 L 213593.8565684921,-3298100.3223327897 L 210763.16392731646,-3303374.92730522 L 210954.50564308953,-3310604.162724435 L 210246.27693023154,-3320422.0298927086 L 209720.65693023155,-3324735.8198927087 L 208098.01991083092,-3334223.1579143456 L 205570.7915482479,-3343510.5499291625 L 202162.38472634045,-3352511.955184449 L 197904.37578947213,-3361143.982381294 L 192836.2120112575,-3369326.6622327073 L 187004.84614502493,-3376984.188319353 L 180464.30144161358,-3384045.6193794287 L 173275.17116429016,-3390445.5365264863 L 169698.13718711384,-3393059.625004111 L 167324.92920335243,-3394941.73501392 L 165577.6002940983,-3396070.9042042494 L 165504.057237406,-3396124.64930657 L 165388.51338766151,-3396193.09705982 L 159199.5764141815,-3400192.548401999 L 150604.86152035475,-3404633.6378042456 L 141621.22452059452,-3408223.437999445 L 132332.7454289222,-3410928.351186311 L 122826.35734963462,-3412723.061433369 L 113191.03284952416,-3413590.771616832 L 103516.95124227983,-3413523.360628914 L 93894.65457865491,-3412521.4593852237 L 80715.59457865484,-3410500.7893852238 L 77523.61877273559,-3409852.4658625363 L 70254.04276012947,-3414105.961155157 L 61555.23370767336,-3418132.3987803464 L 52510.87767419112,-3421307.4740267373 L 43204.07554047067,-3423602.0138334106 L 33720.339580881584,-3424994.9356292873 L 24146.80776395189,-3425473.441042911 L 14571.443115826636,-3425033.1334957746 L 10142.041550456774,-3424616.0003165742 L 7594.1695155662055,-3424543.189074079 L -2387.2970049695778,-3423245.6848126436 L -5379.667004969579,-3422702.3548126435 L -8475.711199250443,-3421984.104299324 L -10101.900296146097,-3421713.0802253154 L -12994.398152716738,-3420935.8152503977 L -14794.346921350785,-3420518.245588631 L -15768.938883902283,-3420190.2474267483 L -19501.78272348244,-3419187.166727223 L -28611.5742496812,-3415759.3792488645 L -37344.970505684105,-3411462.1919730725 L -37631.471547010486,-3411284.705591034 L -40048.31036506461,-3410527.9843461085 L -48942.733413382964,-3406767.050858939 L -52528.67341338297,-3405042.160858939 L -61100.47777714431,-3400391.312353849 L -69178.49807639369,-3394927.6313682124 L -76685.9073120476,-3388703.080907632 L -83551.30535126418,-3381776.860319821 L -89709.39798713048,-3374214.842271973 L -95101.61792719558,-3366088.94626071 L -99676.68180486144,-3357476.4546129247 L -100348.20180486144,-3356048.2946129246 L -102013.6599986731,-3352009.156516107 L -103455.09199218325,-3348836.969273167 L -106857.94074200216,-3346811.227149586 L -114875.15376088422,-3340882.9174171733 L -122262.13712264274,-3334185.676366811 L -128945.44902437879,-3326786.0883446527 L -129121.55467667797,-3326546.988997865 L -133178.19613972688,-3326956.07245846 L -143224.1557540527,-3326956.084936537 L -145068.47869104316,-3326770.102704382 L -146911.05545939572,-3326827.8332370813 L -157243.2463242976,-3326617.3008763245 L -167498.53601314497,-3325341.5558620254 L -169842.14806984967,-3324926.078929546 L -178054.66246157954,-3325599.864968093 L -188047.29782509495,-3325418.7392566456 L -197971.9475967374,-3324241.07421863 L -199430.85759673736,-3323993.49421863 L -208987.3129983389,-3321886.062725144 L -218292.02106663445,-3318854.6414237875 L -227255.8733039878,-3314928.261359477 L -235793.02549045748,-3310144.524338321 L -243821.71978905925,-3304549.242826 L -251265.06771692168,-3298196.001215034 L -258051.7864840452,-3291145.6426625564 L -264116.8816479624,-3283465.6864129966 L -269402.26954671275,-3275229.681185809 L -273857.33354927157,-3266516.5008206596 L -277439.4087963837,-3257409.588925481 L -280114.19078957936,-3247996.159761175 L -280451.9541878091,-3246128.8636736004 L -280777.44175596914,-3244950.1636061682 L -282013.48946222826,-3237851.300233292 L -283847.73053365864,-3236468.8249041294 L -291117.63802376314,-3229766.651839861 L -297690.11218236235,-3222379.2800384266 L -300141.79441011226,-3219003.778628854 L -302224.20798861294,-3216639.491876937 L -307968.27747433045,-3208656.2521453323 L -312900.36818400375,-3200147.378418418 L -314794.3744274743,-3195983.8611201798 L -315816.81880879105,-3194734.331489424 L -321196.03921511513,-3186681.0776939536 L -325771.0253763963,-3178145.2467151815 L -329498.8680816194,-3169206.896887658 L -332344.60355523805,-3159949.8618067987 L -334281.5413856037,-3150460.9640459744 L -335291.51485676225,-3140829.2008397058 L -335300.88166811777,-3139595.6507354225 L -338314.0031995623,-3135233.900994646 L -343137.0876866957,-3126504.1670912225 L -347066.60902128165,-3117337.4195723017 L -350063.4800982122,-3107824.8404402854 L -352097.89092161134,-3098061.051698396 L -352569.85757586895,-3093610.310738592 L -355202.9078673009,-3089934.0759203173 L -356688.75786730094,-3087628.435920317 L -357838.86554130126,-3085623.8735432634 L -358058.99451489566,-3085363.6931800353 L -363695.01234304236,-3077173.89700687 L -368489.9790232408,-3068464.9502936923 L -372396.5023235524,-3059322.930056277 L -375375.9711605912,-3049838.1936990405 L -377398.9372216583,-3040104.4859454166 L -378445.40602438,-3030218.0122888437 L -378505.0345370894,-3020276.488122115 L -378430.5747914877,-3019482.108803122 L -380459.38333641144,-3017694.917896274 L -387231.20069185115,-3010413.5188878835 L -393246.3976488807,-3002495.584347679 L -398445.49817655055,-2994019.4038683586 L -402777.0955019649,-2985068.7867709016 L -406198.3604013383,-2975732.2334291623 L -408675.46467943524,-2966102.0602110806 L -409447.8357611633,-2961069.542674568 L -411183.86804520816,-2953900.56852181 L -411633.2952395062,-2950773.105223422 L -416635.32702811615,-2942845.0423030574 L -421164.45122288854,-2933726.302710709 L -424742.87292145926,-2924194.2894988046 L -427333.4966379665,-2914347.8156891507 L -428909.4668328611,-2904288.9541397737 L -428926.36398583214,-2903973.725888666 L -429073.7631177545,-2903268.657488748 L -429425.16823616455,-2900127.829244737 L -429650.6693243786,-2898757.26497701 L -430801.50790894113,-2892898.1838585255 L -431740.05977328774,-2883292.248748666 L -431741.3066096579,-2881811.4470639424 L -432985.68929679174,-2880178.143572812 L -438173.95129256306,-2871755.5843294715 L -442504.66285605566,-2862861.625475385 L -445935.4446976821,-2853583.301127772 L -446802.55914149876,-2850259.713003096 L -449790.1147560195,-2841926.6310191257 L -452167.43228344637,-2832496.5079184 L -453617.49731858517,-2822880.054740907 L -454126.59531159425,-2813168.2228048327 L -453689.91127167665,-2803452.8655097904 L -452311.575306714,-2793825.8695978387 L -451206.3772698388,-2789299.7884796835 L -451253.2165618048,-2787380.6029656953 L -450550.3679736843,-2777712.682073887 L -448914.76915902755,-2768158.2324808664 L -447492.4916609671,-2762948.633632826 L -447420.0681701743,-2761258.38532289 L -447987.1170452372,-2753107.467992539 L -447828.7952507179,-2747931.6142202043 L -448659.48323058593,-2746331.379196992 L -452356.9934061253,-2737041.182935295 L -455108.25789520756,-2727428.1775888815 L -456885.76974033425,-2717588.473339286 L -457271.07196053426,-2712702.006994938 L -460077.2711204918,-2709603.0508715007 L -465805.7895350058,-2701907.2405450665 L -470770.472502162,-2693697.8956965716 L -474925.62437504204,-2685050.576301569 L -478233.0005458571,-2676044.873515523 L -480662.1594547477,-2666763.6771055097 L -482190.74277822307,-2657292.4125210377 L -482557.5779133731,-2651571.745307808 L -483841.26214750845,-2648628.567446786 L -486913.4822089492,-2639063.1352356477 L -487966.0001642887,-2634131.406388891 L -488068.3192294188,-2633921.313614451 L -491508.72596428776,-2624608.9660285306 L -494008.8308450788,-2615001.380918454 L -495543.99378411105,-2605193.2470076154 L -496099.0847963535,-2595281.2295525027 L -495668.63311483234,-2585363.017646509 L -494256.88110844063,-2575536.3614331894 L -492722.2531583155,-2569319.350043833 L -492672.9072951229,-2563235.532257274 L -491594.37605864514,-2553298.1646827376 L -489529.1623580577,-2543518.1137467558 L -488893.8938892992,-2541521.9339870387 L -488438.4711463146,-2538942.367338815 L -485783.45269157336,-2529466.8918934874 L -484773.12513207016,-2526874.6316147004 L -484350.2487518627,-2525398.834605363 L -483300.91962425405,-2522787.2771767755 L -483507.1855501338,-2522360.4572718753 L -486876.46779269475,-2513202.887628123 L -489337.2039505257,-2503760.540347296 L -490865.96458086243,-2494123.318987104 L -491448.19387300784,-2484382.982562649 L -491078.34823878296,-2474632.2718799836 L -489759.9490947734,-2464964.026521736 L -487505.54933381424,-2455470.3008922483 L -484336.6138049505,-2446241.4877386456 L -483730.52108360303,-2444914.2484934377 L -483236.5919548687,-2442155.041083674 L -480509.81334729027,-2432561.07539597 L -479525.6021991403,-2430073.101463689 L -478989.8456285743,-2428195.070254976 L -478510.39677153644,-2426985.116402686 L -478148.9221083975,-2425651.3012497383 L -474713.91681405273,-2416573.5901837656 L -473912.2277906155,-2414950.7744268714 L -473850.4977095417,-2414383.010921808 L -471767.439310203,-2404553.1945163333 L -469078.67825118045,-2396140.4821173185 L -468022.2345562361,-2388412.237739469 L -465705.4249644493,-2378747.659968385 L -462440.739952905,-2369360.780723752 L -458260.4253607226,-2360344.315779645 L -453205.77085331595,-2351787.322266227 L -452039.0610747533,-2350197.130075806 L -451332.32354483503,-2346357.7181223747 L -449332.4519660987,-2339442.505220757 L -449239.3974180412,-2338285.161448785 L -447531.3378309164,-2328745.917464289 L -444907.9406953966,-2319416.8000988434 L -441393.8435521163,-2310385.4234254616 L -437022.0489190659,-2301736.605296067 L -431833.61434962123,-2293551.5707776607 L -425877.2668419951,-2285907.1893300023 L -419208.94522137166,-2278875.252888819 L -412421.0988955064,-2272981.8130061966 L -411372.54376827215,-2272005.6610930404 L -403294.9095616061,-2265886.9570082836 L -394639.5094870002,-2260617.1597064864 L -385495.2230037022,-2256250.383004513 L -375955.94978484564,-2252831.4678974175 L -373098.554169484,-2251968.027627591 L -371065.87805572577,-2250578.926623717 L -370905.25078384497,-2250416.8331833845 L -369373.810783845,-2249024.473183384 L -361813.65977571456,-2242799.043942795 L -353680.8106582427,-2237342.981468102 L -349774.104087873,-2235244.457546983 L -354993.4326961076,-2229776.8718662895 L -361143.82854293025,-2221886.206960921 L -366475.0116888779,-2213420.485019717 L -366642.5153158361,-2213084.019192672 L -367823.96914812445,-2212694.374237538 L -376793.6338621929,-2208724.2418748317 L -385331.1845910302,-2203894.4319807743 L -393354.4757227531,-2198251.415458042 L -400786.3096886132,-2191849.4876262015 L -403041.3816100963,-2189484.351232871 L -407610.3555977625,-2185341.799606544 L -414423.85851111857,-2177764.3290491085 L -420430.8222693415,-2169532.78797793 L -425568.86943025596,-2160732.6542646657 L -426074.55077134166,-2159619.839047791 L -429237.01611734735,-2153999.4940676275 L -432770.05216778576,-2146012.5407968736 L -438117.09124674683,-2138268.405131174 L -442847.70891544415,-2129747.210262287 L -446726.3478613993,-2120805.976262002 L -449716.16508505517,-2111529.6354699614 L -451788.76046044455,-2102006.3033886543 L -452924.4465065821,-2092326.441678612 L -453112.43539787276,-2082581.998867569 L -452350.9414371339,-2072865.536935945 L -450647.19801784423,-2063269.3520751703 L -448017.38891449716,-2053884.5979707255 L -447992.03950462886,-2053808.603965608 L -452051.629232604,-2047570.8339387618 L -454612.939232604,-2043141.5839387618 L -459056.69365721097,-2034516.8316834208 L -462643.72455486964,-2025502.0374987784 L -465340.2660182796,-2016182.0606217505 L -466882.59218194865,-2007921.2174216467 L -470309.91799582524,-1999963.207603073 L -473244.865905051,-1990819.8611067669 L -475289.2724760041,-1981437.1586094038 L -476424.2852739269,-1971901.6224246926 L -476639.43781185645,-1962301.1842176728 L -475932.74606702465,-1952724.3741454636 L -475773.74606702465,-1951424.2441454637 L -473988.51278658386,-1941234.5111655123 L -471160.1217205208,-1931283.7363190132 L -467318.8416640392,-1921678.410525685 L -462505.78111898137,-1912521.3277883767 L -457382.52915044286,-1904826.7601553323 L -456925.16684198787,-1903065.9358106286 L -455675.6068419878,-1899070.8058106287 L -452859.19814554363,-1891472.064147833 L -453066.0901530593,-1888352.849886192 L -453140.0501530593,-1884459.649886192 L -452801.08930629614,-1874117.954604004 L -451395.29514964845,-1863866.6474407983 L -448937.7188963834,-1853815.4845864493 L -445454.67272324034,-1844072.0793746659 L -440991.4771713477,-1834757.5066657318 L -441752.43712577,-1831004.951943456 L -442751.04459527665,-1821092.964145131 L -442752.2681731249,-1819452.2501512652 L -442966.0523069397,-1817128.6988920006 L -442893.44976589445,-1807225.0252888375 L -441841.55279652704,-1797377.1049635713 L -439820.6792481414,-1787681.5342187213 L -436959.12986136007,-1778578.5015867935 L -438797.1731824939,-1772124.0017126584 L -440391.15502285643,-1763259.7806345017 L -443763.33485211496,-1759798.129668616 L -449780.6306801004,-1752297.586889865 L -455049.69438367477,-1744253.7719525958 L -459521.80504310864,-1735741.0627888136 L -463155.61084397754,-1726838.1730074596 L -465917.5114408129,-1717627.424061225 L -467781.96864602575,-1708193.9840530788 L -468731.7425712899,-1698625.0802209645 L -468758.0510378771,-1689009.192382499 L -467860.6507819438,-1679435.2347975704 L -466047.83970389416,-1669991.7340138217 L -463336.38014102116,-1660766.0102971548 L -459751.3438728942,-1651843.3702162383 L -455325.88029266417,-1643306.3178468652 L -453098.2002926641,-1639472.207846865 L -451798.63252703316,-1637465.3758913323 L -456883.03501554043,-1628967.3157520748 L -461111.11176458385,-1619982.307825317 L -464427.22224430257,-1610622.2644639853 L -466798.6672839435,-1600979.482248065 L -468135.1039690921,-1591618.0755499399 L -468405.11793351325,-1591086.281666482 L -472019.9837318438,-1581759.460690251 L -474684.9853563231,-1572118.1635470174 L -476373.45764170086,-1562258.858013456 L -477068.50626712735,-1552280.193189398 L -477001.23717500916,-1550077.429932963 L -479939.34859462956,-1545605.488700024 L -484499.279786731,-1536912.1920187634 L -487600.4135337037,-1529256.5380434124 L -495991.19203088107,-1529323.6062545609 L -505513.08470141055,-1528487.068114606 L -514911.6086982128,-1526745.2349508915 L -519272.18406117853,-1525496.6496409944 L -522046.4168182866,-1525799.7199657839 L -524800.9068182866,-1525963.479965784 L -534390.1152039092,-1526072.9413791932 L -540160.9130760313,-1525584.0255907762 L -541954.9747896831,-1526023.7453224561 L -551537.7457311176,-1527408.3741988172 L -561209.505576295,-1527859.7693012096 L -570879.5847721767,-1527373.6989496874 L -580457.3295212553,-1525954.7198932008 L -589852.9516309558,-1523616.1345915794 L -598978.3702482744,-1520379.866509367 L -607748.0375886743,-1516276.2545905844 L -616079.7409183014,-1511343.7688411542 L -623895.3732712008,-1505628.649685304 L -631121.6656763166,-1499184.4744768683 L -634083.7156763166,-1496273.6344768684 L -640647.2021108329,-1489167.6458556259 L -643745.8768858335,-1485082.729328699 L -643763.6304163139,-1485066.966527359 L -647056.9568124874,-1481839.9160233093 L -652672.3316741502,-1477922.5452832694 L -660017.5468998128,-1472275.0538991357 L -662679.7278372372,-1469804.1425557001 L -665565.4591075181,-1467608.9121725801 L -667824.0891075181,-1465712.82217258 L -674714.6061527164,-1459354.434052499 L -680979.3330542175,-1452378.652986169 L -686563.1976474,-1444846.801896247 L -691417.113114126,-1436825.0920238048 L -695498.4094967353,-1428384.0408764028 L -698771.208802494,-1419597.852320494 L -698820.4921805005,-1419414.6413762046 L -699190.9814886249,-1418677.5701710626 L -702758.9517737804,-1409369.3035842332 L -705382.4374759287,-1399752.0502560807 L -705748.7964393977,-1397573.160105978 L -706423.1154656485,-1396239.6267767996 L -709649.6781513594,-1388195.7615166805 L -712108.0081513595,-1381204.4815166804 L -714797.1831417979,-1372235.0626946264 L -716635.6044670506,-1363053.4319481053 L -717607.1524562265,-1353740.095776822 L -717703.3083690208,-1344376.7155017802 L -716923.2290898499,-1335045.3912413758 L -715486.2952905057,-1327015.643740548 L -717560.827415555,-1321053.3361242013 L -720365.8244657456,-1311476.4201263753 L -722202.3412058934,-1301667.6212832883 L -722319.2289095669,-1300299.9036944916 L -723132.4322787453,-1295941.713771605 L -723241.5650178842,-1294746.7755323546 z" /></g></svg>